<svg xmlns="http://www.w3.org/2000/svg" id="Layer_1" viewBox="0 0 100 100">
  <style>
    .st0{fill:#AA70B0;}
  </style>
  <g id="download">
    <g id="box">
      <path id="box_bottom" d="M76.2 83.8H24c-3 .1-5.5-1.9-5.5-4.4 0-2.5 2.4-4.4 5.5-4.4l52.2.1c3.1 0 5.5 1.9 5.5 4.4 0 2.3-2.5 4.3-5.5 4.3z" class="st0"/>
      <path id="box_right" d="M73.2 79.4l.1-20.7c0-2.5 1.9-4.4 4.4-4.4 2.5 0 4.4 1.9 4.4 4.4v20.8c0 2.5-1.9 4.4-4.4 4.4-2.4-.1-4.4-2.1-4.5-4.5z" class="st0"/>
      <path id="box_left" d="M18.2 79.4l.1-20.7c0-2.5 1.9-4.4 4.4-4.4 2.5 0 4.4 1.9 4.4 4.4v20.8c0 2.5-1.9 4.4-4.4 4.4s-4.4-2.1-4.5-4.5z" class="st0"/>
    </g>
    <g id="arrow">
      <path d="M45.7 56.4l.1-41.7c-.1-2.4 1.9-4.4 4.4-4.4 2.5 0 4.4 1.9 4.4 4.4l-.1 41.7c0 2.5-1.9 4.4-4.4 4.4-2.4 0-4.3-2-4.4-4.4z" class="st0"/>
      <path d="M46.9 59.5L32.3 44.8c-1.8-1.8-1.8-4.5 0-6.2 1.8-1.8 4.5-1.8 6.2 0l14.7 14.7c1.8 1.8 1.8 4.5 0 6.2s-4.5 1.7-6.3 0z" class="st0"/>
      <path d="M47.6 53.2l14.7-14.6c1.8-1.8 4.5-1.8 6.2 0 1.8 1.8 1.8 4.5 0 6.2L53.8 59.5c-1.8 1.8-4.5 1.8-6.2 0s-1.6-4.5 0-6.3z" class="st0"/>
    </g>
  </g>
</svg>
