<svg id="Layer_3" xmlns="http://www.w3.org/2000/svg" width="17.607" height="26.571" viewBox="0 0 17.607 26.571">
  <path id="Path_58" data-name="Path 58" d="M28.982,35.663l-5.557-5.589a1.662,1.662,0,1,1,2.35-2.35l5.589,5.589a1.63,1.63,0,0,1,0,2.35A1.727,1.727,0,0,1,28.982,35.663Z" transform="translate(-22.925 -21.359)" fill-rule="evenodd"/>
  <path id="Path_59" data-name="Path 59" d="M28.982,45.676l-5.557,5.589a1.662,1.662,0,1,0,2.35,2.35l5.589-5.589a1.63,1.63,0,0,0,0-2.35A1.727,1.727,0,0,0,28.982,45.676Z" transform="translate(-22.925 -33.41)" fill-rule="evenodd"/>
  <path id="Path_60" data-name="Path 60" d="M44.234,45.676,33.025,56.917a1.662,1.662,0,0,0,2.35,2.35L46.584,48.026a1.63,1.63,0,0,0,0-2.35A1.687,1.687,0,0,0,44.234,45.676Z" transform="translate(-29.477 -33.196)" fill-rule="evenodd"/>
  <path id="Path_61" data-name="Path 61" d="M44.234,23.516,33.025,12.275a1.662,1.662,0,0,1,2.35-2.35L46.584,21.166a1.63,1.63,0,0,1,0,2.35A1.687,1.687,0,0,1,44.234,23.516Z" transform="translate(-29.477 -9.425)" fill-rule="evenodd"/>
</svg>
